<svg width="64" height="64" viewBox="0 0 64 64" fill="none" xmlns="http://www.w3.org/2000/svg">
<path d="M10.6667 44.8005V19.2005C10.6667 16.2136 10.6667 14.719 11.248 13.5781C11.7593 12.5746 12.5746 11.7593 13.5781 11.248C14.719 10.6667 16.2136 10.6667 19.2005 10.6667H44.8005C47.7875 10.6667 49.2789 10.6667 50.4197 11.248C51.4232 11.7593 52.2413 12.5746 52.7525 13.5781C53.3333 14.7179 53.3333 16.2106 53.3333 19.1918V44.8096C53.3333 47.7907 53.3333 49.2813 52.7525 50.4211C52.2413 51.4245 51.4232 52.2413 50.4197 52.7525C49.28 53.3333 47.7893 53.3333 44.8083 53.3333H19.1918C16.2106 53.3333 14.7179 53.3333 13.5781 52.7525C12.5746 52.2413 11.7593 51.4245 11.248 50.4211C10.6667 49.2803 10.6667 47.7875 10.6667 44.8005Z" stroke="#F97316" stroke-opacity="0.901961" stroke-width="5.33333" stroke-linecap="round" stroke-linejoin="round"/>
</svg>
