<svg width="126" height="127" viewBox="0 0 126 127" fill="none" xmlns="http://www.w3.org/2000/svg">
<circle cx="108" cy="5" r="5" fill="#F5F5F5"/>
<circle cx="48" cy="26" r="8" fill="#F5F5F5"/>
<circle cx="80" cy="93" r="17" fill="#F5F5F5"/>
<circle cx="52.5" cy="120.5" r="6.5" fill="#F5F5F5"/>
<circle cx="13.5" cy="38.5" r="6.5" fill="#F5F5F5"/>
<circle cx="3.5" cy="89.5" r="3.5" fill="#F5F5F5"/>
<circle cx="122.5" cy="46.5" r="3.5" fill="#F5F5F5"/>
<circle cx="112.5" cy="114.5" r="9.5" fill="#F5F5F5"/>
<circle cx="66" cy="65" r="38" fill="#EEEEEE"/>
<path d="M87.2464 49.174C87.5326 49.2394 87.803 49.3671 88.0423 49.5663C88.907 50.2606 89.047 51.5337 88.3524 52.4114C86.5639 54.6555 84.0103 56.045 81.1661 56.3154C78.3219 56.5858 75.557 55.7045 73.3958 53.8365C72.5529 53.108 72.4593 51.8333 73.1864 50.9836C73.9134 50.1339 75.1814 50.0361 76.0242 50.7646C77.3534 51.9134 79.0528 52.4537 80.7977 52.2905C82.5504 52.1227 84.1133 51.2716 85.2165 49.8943C85.72 49.2531 86.5133 49.0027 87.2464 49.174Z" fill="#757575"/>
<path d="M38.2227 52.9524C38.7676 52.8462 39.3589 52.973 39.8297 53.3419C41.219 54.4263 42.9418 54.8871 44.6787 54.6356C46.4166 54.3905 47.9401 53.4591 48.9637 52.027C49.6114 51.1217 50.8712 50.9192 51.7726 51.5726C52.6739 52.226 52.8778 53.4937 52.2301 54.399C50.564 56.729 48.0775 58.2355 45.2547 58.6467C42.4246 59.0526 39.6241 58.3072 37.3678 56.5439C36.4873 55.8609 36.3274 54.5857 37.0057 53.7077C37.3224 53.2888 37.7585 53.0384 38.2227 52.9524Z" fill="#757575"/>
<path d="M35.9086 32.5C43.2417 25.9686 52.9074 22 63.5 22C86.4198 22 105 40.5802 105 63.5C105 86.4198 86.4198 105 63.5 105C54.3364 105 45.8664 102.03 39.0003 97M30.3723 38.5C25.1169 45.453 22 54.1125 22 63.5C22 70.5485 23.7572 77.1865 26.8574 83" stroke="#757575" stroke-width="2" stroke-linecap="round"/>
<path d="M61.9998 77.5703C63.2703 75.3589 67.1904 75.7412 68.191 77.2414" stroke="#757575" stroke-width="4" stroke-linecap="round"/>
<path d="M94.2857 3H105.586C106.477 3 106.923 4.07714 106.293 4.70711L93.7071 17.2929C93.0771 17.9229 93.5233 19 94.4142 19H106.857" stroke="#757575" stroke-width="4" stroke-linecap="round"/>
<path d="M114.429 24H120.586C121.477 24 121.923 25.0771 121.293 25.7071L114.707 32.2929C114.077 32.9229 114.523 34 115.414 34H122.286" stroke="#757575" stroke-width="4" stroke-linecap="round"/>
</svg>
